<?xml version="1.0" encoding="utf-8"?>
<!-- Generator: Adobe Illustrator 21.1.0, SVG Export Plug-In . SVG Version: 6.00 Build 0)  -->
<svg version="1.1" id="Layer_1" xmlns="http://www.w3.org/2000/svg" xmlns:xlink="http://www.w3.org/1999/xlink" x="0px" y="0px"
	 viewBox="0 0 290.5 290.5" style="enable-background:new 0 0 290.5 290.5;" xml:space="preserve">
<g>
	<path d="M121.5,189.5c-2.7-6-5.8-12-8.2-18.1c-2.4-6.3-4.2-12.9-6.2-19.3c5.8-2.5,8.7-2,11.9,2.6c2,2.8,3.2,6.1,4.8,9.3
		c0.6,1.3,1.1,2.6,1.7,4c0.4,0,0.8-0.1,1.2-0.1c-0.1-5-0.2-10-0.5-15c-0.2-2.8,0-5.3,2.3-7.2c2.6-2.1,4.7-2.5,7,0
		c2.7,2.9,4.9,6.2,7.3,9.4c1.4,1.8,2.6,3.9,6.1,4.2c0.8-2.1,1.9-4.1,2.3-6.2c0.5-2.9,0.9-6,0.7-8.9c-0.1-2.4-0.6-5-1.8-7
		c-8.6-14.4-13.6-29.8-14.6-46.6c0.7-0.7,1.4-1.4,2.1-2.1c1.8,0,3.6-0.1,5.4,0.1c3.1,0.3,6.3,0.4,8.1,3.1c-0.6,2-1.7,3.7-1.6,5.3
		c0.5,10.2,1.7,20.2,6.5,29.5c1.4,2.7,3.1,5.1,4.7,7.7c0.3-0.2,0.7-0.3,1-0.5c-0.4-2.2-0.8-4.5-1.1-6.7c-0.4-2.9-0.3-5.9,2.6-7.4
		c3-1.6,5.8-0.6,8.3,1.4c1.2,1,2.4,1.9,4.2,3.3c1.6-5.4,2.9-10,4.3-14.5c0.7,0.7,1.4,1.4,2.1,2.1c-0.7,3.9-1.5,7.8-2,11.7
		c-0.3,2.3-0.8,5,0.1,6.8c3.3,6.6,3.2,13.4,2.6,20.3c-1.4,1.4-2.8,2.8-4.2,4.2c-6.7-1-7.4-1.7-7.5-8.5c-0.1-4.3,0.1-8.6,0-13
		c-0.1-5.3-3.6-10.4-7.8-11.7c-0.9,4.5-0.6,6.7,2.4,13.8c1.9,4.7-0.8,9.4-5.6,9.8c-1.2,0.1-2.5-0.3-3.2-0.3
		c-0.2,2.5-0.3,4.8-0.5,7.2c-0.4,5.5-3,9.5-8,11.7c-4.9,2.1-9,0.3-12.5-3.4c-1.7-1.8-3.6-3.6-5.8-5.8c-1.3,8.8,0.1,20.1,3.2,26.7
		c1.9,4.1,1.8,5.9-1.4,8.9c-1.7,1.6-4.2,2.4-6.3,3.6C124.4,192.3,122.9,190.9,121.5,189.5z"/>
</g>
<g>
	<ellipse transform="matrix(0.7071 -0.7071 0.7071 0.7071 10.051 174.326)" cx="215.5" cy="75" rx="5.5" ry="5.5"/>
	<g>
		<path d="M57.4,183.9l-7,13.7l11.1-5.4l0.8,1.6l-13.8,6.8l-0.8-1.6l7.1-13.7l-11.1,5.5l-0.8-1.6l13.8-6.8L57.4,183.9z"/>
		<path d="M53.4,172.2l-14.9,4.1l-0.5-1.7l14.9-4.1L53.4,172.2z"/>
		<path d="M35,151.9c0.3-1,0.8-1.9,1.4-2.7l1.4,0.9c-0.5,0.7-1,1.4-1.2,2.2c-0.3,0.8-0.4,1.7-0.3,2.5c0.1,1.1,0.5,2.2,1.1,3.1
			c0.6,0.9,1.4,1.6,2.4,2.1c1,0.5,2,0.7,3.1,0.6c1.1-0.1,2.1-0.5,3-1.1c0.9-0.6,1.5-1.5,2-2.5c0.5-1,0.6-2.1,0.5-3.2
			c-0.1-0.8-0.3-1.6-0.7-2.4s-0.9-1.4-1.5-2l1.1-1.2c0.8,0.7,1.5,1.5,2,2.5c0.5,1,0.8,2,0.9,3c0.1,1.4-0.1,2.8-0.7,4.1
			c-0.6,1.3-1.4,2.3-2.6,3.1c-1.1,0.8-2.4,1.3-3.8,1.4c-1.4,0.1-2.7-0.1-4-0.7c-1.2-0.6-2.3-1.5-3.1-2.7c-0.8-1.2-1.3-2.5-1.4-3.9
			C34.6,153.9,34.7,152.9,35,151.9z"/>
		<path d="M37,126.8c0.9-1.1,1.9-2,3.2-2.5c1.3-0.5,2.6-0.7,4-0.5c1.4,0.2,2.7,0.7,3.7,1.6s1.9,2,2.4,3.3c0.5,1.3,0.7,2.7,0.5,4.1
			c-0.2,1.5-0.7,2.8-1.6,3.9c-0.9,1.1-1.9,2-3.2,2.5c-1.3,0.5-2.6,0.7-4,0.5c-1.4-0.2-2.7-0.7-3.7-1.6c-1.1-0.9-1.9-2-2.4-3.3
			c-0.5-1.3-0.7-2.7-0.4-4.2C35.6,129.2,36.2,128,37,126.8z M37.5,134.1c0.4,1,1,1.9,1.9,2.6c0.8,0.7,1.8,1.1,2.9,1.3
			c1.1,0.2,2.2,0,3.2-0.4c1-0.4,1.8-1.1,2.5-2c0.7-0.9,1.1-1.9,1.2-3c0.2-1.1,0-2.2-0.4-3.2c-0.4-1-1-1.9-1.9-2.6
			c-0.8-0.7-1.8-1.1-2.9-1.3c-1.1-0.2-2.2,0-3.1,0.4c-1,0.4-1.8,1.1-2.5,1.9c-0.7,0.9-1.1,1.9-1.2,3C36.9,132,37.1,133.1,37.5,134.1
			z"/>
		<path d="M56,107.7l1.6,0.6l-3,8l-14.4-5.4l0.6-1.7l12.9,4.8L56,107.7z"/>
		<path d="M58.8,97.1l2.4,3.5l-1,1.6l-9.3-14.1l1-1.5L68.6,89l-1,1.6L63.3,90L58.8,97.1z M53,88.5l4.8,7.1l3.7-5.8L53,88.5z"/>
		<path d="M81.8,56.7c1.1,0,2,0.5,2.8,1.4c0.6,0.7,0.8,1.5,0.8,2.3c0,0.8-0.3,1.5-0.9,2.2c1-0.5,1.9-0.7,2.8-0.6
			c0.9,0.2,1.7,0.7,2.3,1.5c0.8,1,1,2.1,0.7,3.3c-0.3,1.2-1.2,2.3-2.6,3.4l-5.2,4L73.2,62l5.1-4C79.5,57.1,80.7,56.7,81.8,56.7z
			 M82.9,71.9l3.7-2.8c1-0.8,1.6-1.6,1.9-2.4c0.3-0.8,0.1-1.5-0.4-2.2c-0.5-0.7-1.2-1-2-0.9c-0.8,0.1-1.7,0.5-2.7,1.2l-3.7,2.8
			L82.9,71.9z M78.6,66.2l3.7-2.8c0.8-0.6,1.3-1.3,1.5-2c0.2-0.7,0-1.4-0.5-2c-0.5-0.6-1.1-0.9-1.8-0.9c-0.7,0-1.5,0.3-2.3,1
			l-3.7,2.8L78.6,66.2z"/>
		<path d="M104.1,44.6c1.4,0.1,2.7,0.6,3.8,1.4c1.1,0.8,2,1.8,2.6,3.1c0.6,1.3,0.8,2.6,0.6,4c-0.2,1.4-0.7,2.6-1.5,3.8
			c-0.8,1.1-1.9,2-3.3,2.6c-1.4,0.6-2.7,0.8-4.1,0.7c-1.4-0.1-2.7-0.6-3.8-1.4c-1.1-0.8-2-1.8-2.6-3.1c-0.6-1.3-0.8-2.6-0.6-4
			s0.7-2.6,1.5-3.7c0.8-1.1,2-2,3.3-2.6C101.3,44.7,102.7,44.5,104.1,44.6z M98.2,48.8c-0.7,0.9-1.1,1.9-1.2,2.9s0,2.1,0.4,3.1
			c0.5,1,1.1,1.8,2,2.5c0.9,0.6,1.9,1,3,1.1c1.1,0.1,2.2-0.1,3.2-0.5c1-0.5,1.9-1.1,2.5-2s1-1.9,1.2-2.9c0.1-1.1,0-2.1-0.5-3.2
			c-0.5-1-1.1-1.8-2-2.5c-0.9-0.6-1.9-1-3-1.1c-1.1-0.1-2.2,0.1-3.2,0.5C99.7,47.3,98.8,47.9,98.2,48.8z"/>
		<path d="M130.4,50.6l0.3,1.6l-8.3,1.7l-3.1-15.1l1.7-0.4l2.7,13.5L130.4,50.6z"/>
		<path d="M143.9,37.6l0.2,13.7l-1.8,0l-0.2-13.7l-5,0.1l0-1.7l11.8-0.2l0,1.7L143.9,37.6z"/>
		<path d="M169.8,39.7c1.1,0.9,1.9,2,2.3,3.3c0.5,1.3,0.6,2.6,0.3,4c-0.3,1.4-0.9,2.6-1.8,3.6c-0.9,1-2.1,1.8-3.4,2.2
			c-1.3,0.4-2.7,0.5-4.2,0.2c-1.5-0.3-2.7-0.9-3.8-1.8c-1.1-0.9-1.9-2-2.3-3.3c-0.5-1.3-0.6-2.7-0.3-4.1c0.3-1.4,0.9-2.6,1.8-3.6
			c0.9-1,2.1-1.8,3.4-2.2s2.7-0.5,4.2-0.2C167.4,38.2,168.7,38.8,169.8,39.7z M162.4,39.8c-1,0.3-1.9,0.9-2.7,1.7
			c-0.7,0.8-1.2,1.7-1.4,2.8c-0.2,1.1-0.1,2.2,0.3,3.2c0.4,1,1,1.9,1.8,2.6c0.8,0.7,1.8,1.2,2.9,1.4c1.1,0.2,2.2,0.2,3.2-0.2
			c1-0.3,1.9-0.9,2.7-1.7c0.7-0.8,1.2-1.8,1.4-2.9c0.2-1.1,0.1-2.1-0.2-3.2s-1-1.9-1.8-2.6c-0.8-0.7-1.8-1.2-2.9-1.4
			C164.6,39.4,163.5,39.4,162.4,39.8z"/>
		<path d="M189.3,62.3l-3.1-15.1L181,58.4l-1.6-0.8l6.6-13.9l1.7,0.8l3.1,15.1l5.3-11.2l1.6,0.7l-6.6,13.9L189.3,62.3z"/>
	</g>
	<ellipse transform="matrix(0.7071 -0.7071 0.7071 0.7071 -131.8865 115.5336)" cx="73.5" cy="217" rx="5.5" ry="5.5"/>
	<g>
		<path d="M244.4,97.5c0,1.4-0.4,2.6-1.2,3.8c-0.7,1.2-1.7,2.1-3,2.7c-1.3,0.7-2.6,1-4,0.9c-1.4-0.1-2.6-0.5-3.8-1.3
			c-1.2-0.8-2.1-1.8-2.8-3.1L227,95l13.7-7.1l2.9,5.5C244.2,94.8,244.5,96.1,244.4,97.5z M229.3,95.8l2.1,4c0.5,1,1.2,1.8,2.1,2.4
			c0.9,0.6,1.9,0.9,2.9,1s2.1-0.2,3.1-0.7c1-0.5,1.8-1.2,2.3-2.1c0.6-0.9,0.9-1.9,0.9-3c0-1.1-0.2-2.1-0.7-3.1l-2-3.9L229.3,95.8z"
			/>
		<path d="M235.5,113.8l14.6-4.8l0.5,1.7l-14.6,4.8L235.5,113.8z"/>
		<path d="M247.7,134.2l-5.5,0.9c-0.7-0.7-1.4-1.5-1.9-2.4c-0.5-0.9-0.9-1.9-1-2.9c-0.2-1.4-0.1-2.8,0.4-4.1
			c0.5-1.3,1.3-2.4,2.3-3.3c1.1-0.9,2.3-1.5,3.7-1.7c1.4-0.2,2.7-0.1,4,0.4c1.3,0.5,2.4,1.3,3.2,2.5c0.9,1.1,1.4,2.4,1.7,3.9
			c0.2,1,0.1,2.1-0.1,3.1c-0.2,1-0.6,2-1.1,2.8l-1.5-0.8c0.5-0.7,0.8-1.5,0.9-2.3s0.2-1.7,0.1-2.5c-0.2-1.1-0.6-2.2-1.3-3
			c-0.7-0.9-1.5-1.5-2.6-1.9c-1-0.4-2.1-0.5-3.2-0.4c-1.1,0.2-2.1,0.6-2.9,1.3c-0.8,0.7-1.4,1.6-1.8,2.6c-0.4,1-0.5,2.1-0.3,3.3
			c0.1,0.7,0.3,1.3,0.7,2c0.3,0.7,0.8,1.3,1.3,1.8l4.6-0.7L247.7,134.2z"/>
		<path d="M240.5,143l15.4-0.1l0,1.8l-15.4,0.1L240.5,143z"/>
		<path d="M253.1,159.3l-13.6-1.8l0.2-1.7l13.6,1.8l0.7-5l1.7,0.2l-1.5,11.7l-1.7-0.2L253.1,159.3z"/>
		<path d="M241.2,169.3l-3.2-2.8l0.5-1.8l12.7,11.1l-0.5,1.7l-16.7,2.1l0.6-1.8l4.2-0.5L241.2,169.3z M249.1,176.1l-6.5-5.6l-2,6.6
			L249.1,176.1z"/>
		<path d="M229,193.2l-1.5-0.8l3.9-7.6l13.7,7.1l-0.8,1.6l-12.2-6.3L229,193.2z"/>
		<path d="M221.8,222.6c-1.3,0.4-2.6,0.4-4,0.1c-1.3-0.3-2.5-1-3.6-2c-1-1-1.7-2.2-2.1-3.5s-0.4-2.6,0-4c0.4-1.3,1-2.6,2.1-3.6
			l4.3-4.5l11.1,10.7l-4.3,4.5C224.3,221.5,223.1,222.2,221.8,222.6z M218.5,207.7l-3.1,3.2c-0.8,0.8-1.3,1.7-1.6,2.8
			c-0.3,1-0.3,2.1,0,3.1c0.3,1,0.8,1.9,1.7,2.7c0.8,0.8,1.7,1.3,2.8,1.5c1,0.2,2.1,0.2,3.1-0.1c1-0.3,1.9-0.9,2.7-1.7l3.1-3.2
			L218.5,207.7z"/>
		<path d="M210,231.7l-2.9-4.2l-6.4,4.4l-1-1.4l6.4-4.4l-3-4.3l-7.4,5.1l-1-1.4l8.8-6.1l8.8,12.6l-8.6,6l-1-1.4L210,231.7z"/>
		<path d="M188.5,245.6c-0.9,0.1-1.7,0.1-2.5,0l0-1.8c0.8,0.1,1.6,0.1,2.3,0c0.8-0.1,1.5-0.3,2.1-0.6c0.9-0.4,1.6-0.9,1.9-1.5
			c0.4-0.6,0.5-1.2,0.2-1.7c-0.2-0.5-0.6-0.9-1-1.1c-0.5-0.2-0.9-0.3-1.5-0.3c-0.5,0-1.3,0.1-2.2,0.2c-1.1,0.1-2,0.2-2.7,0.2
			c-0.7,0-1.4-0.2-2-0.5c-0.7-0.3-1.2-0.9-1.6-1.8c-0.4-0.8-0.4-1.5-0.3-2.3c0.2-0.8,0.5-1.5,1.2-2.2c0.6-0.7,1.4-1.2,2.4-1.7
			c1-0.5,2.1-0.7,3.2-0.7c1.1,0,2.2,0.1,3.1,0.5l-0.1,1.8c-0.9-0.3-1.9-0.5-2.9-0.5c-1,0-1.9,0.2-2.7,0.6c-1,0.5-1.7,1-2.1,1.7
			c-0.4,0.7-0.5,1.3-0.2,2c0.2,0.5,0.6,0.9,1,1.1c0.5,0.2,1,0.3,1.5,0.3c0.5,0,1.3-0.1,2.2-0.2c1.1-0.1,2-0.2,2.7-0.2
			c0.7,0,1.4,0.2,2,0.5c0.6,0.3,1.2,0.9,1.5,1.8c0.3,0.7,0.4,1.5,0.3,2.2c-0.2,0.7-0.5,1.4-1.1,2c-0.6,0.6-1.4,1.2-2.3,1.6
			C190.2,245.2,189.4,245.5,188.5,245.6z"/>
		<path d="M173.2,235.1l4.3,14.8l-1.7,0.5l-4.3-14.8L173.2,235.1z"/>
		<path d="M152.4,246.6l-0.7-5.5c0.7-0.7,1.5-1.3,2.5-1.8c1-0.5,1.9-0.8,2.9-0.9c1.5-0.2,2.8,0,4.1,0.5s2.4,1.3,3.2,2.4
			c0.9,1.1,1.4,2.3,1.6,3.8c0.2,1.4,0,2.8-0.6,4c-0.6,1.3-1.4,2.3-2.6,3.2c-1.1,0.8-2.5,1.4-3.9,1.6c-1,0.1-2.1,0.1-3.1-0.2
			c-1-0.2-2-0.6-2.8-1.2l0.8-1.4c0.7,0.5,1.5,0.8,2.3,1c0.8,0.2,1.7,0.3,2.5,0.1c1.2-0.1,2.2-0.6,3.1-1.2c0.9-0.7,1.6-1.5,2-2.5
			c0.4-1,0.6-2,0.4-3.2c-0.1-1.1-0.6-2.1-1.2-2.9c-0.7-0.9-1.5-1.5-2.6-1.9s-2.1-0.6-3.3-0.4c-0.7,0.1-1.4,0.3-2,0.6
			c-0.7,0.3-1.3,0.7-1.8,1.2l0.6,4.6L152.4,246.6z"/>
		<path d="M133.1,238.4l8.2,13.1l1-12.3l1.8,0.1l-1.3,15.4l-1.8-0.2l-8.2-13.1l-1,12.3l-1.7-0.1l1.3-15.4L133.1,238.4z"/>
		<path d="M118,249.4l1.4-4.9l-7.5-2.2l0.5-1.6l7.5,2.2l1.5-5.1l-8.6-2.5l0.5-1.6l10.3,3l-4.3,14.8l-10-2.9l0.5-1.6L118,249.4z"/>
		<path d="M98.5,232.3c0.4,0.2,0.7,0.3,0.9,0.4l3.6,1.9l2.2-4.3l1.6,0.8l-7.1,13.7l-5.2-2.7c-1.7-0.9-2.8-2-3.3-3.3
			c-0.5-1.3-0.4-2.7,0.3-4.1c0.6-1.1,1.3-1.9,2.2-2.4c0.9-0.5,2-0.6,3.1-0.4l-0.8-6.3l1.8,0.9L98.5,232.3z M95.4,233.6
			c-1,0.2-1.7,0.8-2.3,1.9c-0.5,1-0.6,2-0.2,2.9c0.4,0.9,1.2,1.6,2.5,2.3l3.6,1.9l3.3-6.4l-3.6-1.9
			C97.4,233.6,96.3,233.4,95.4,233.6z"/>
	</g>
</g>
</svg>
