<?xml version="1.0" encoding="utf-8"?>
<!-- Generator: Adobe Illustrator 21.1.0, SVG Export Plug-In . SVG Version: 6.00 Build 0)  -->
<svg version="1.1" id="Layer_1" xmlns="http://www.w3.org/2000/svg" xmlns:xlink="http://www.w3.org/1999/xlink" x="0px" y="0px"
	 viewBox="0 0 55.7 55.7" style="enable-background:new 0 0 55.7 55.7;" xml:space="preserve">
<path d="M32.4,27.3c-0.6-0.6-1.5-0.6-2,0l-1.1,1.1v-5.1c0-0.8-0.6-1.4-1.4-1.4c-0.8,0-1.4,0.6-1.4,1.4v5.1l-1.1-1.1
	c-0.6-0.6-1.5-0.6-2,0c-0.6,0.6-0.6,1.5,0,2l4.6,4.6l4.6-4.6C32.9,28.7,32.9,27.8,32.4,27.3z"/>
<g>
	<g>
		<path d="M44,41c-0.2,0.1-0.4,0.3-0.6,0.3l-0.2-0.5c0.2-0.1,0.4-0.2,0.6-0.3s0.3-0.3,0.4-0.4c0.2-0.2,0.3-0.4,0.3-0.6
			c0-0.2,0-0.3-0.2-0.5c-0.1-0.1-0.3-0.1-0.4-0.1c-0.1,0-0.3,0.1-0.4,0.1c-0.1,0.1-0.3,0.2-0.5,0.3c-0.3,0.2-0.5,0.3-0.7,0.4
			c-0.2,0.1-0.4,0.1-0.6,0.1c-0.2,0-0.4-0.1-0.6-0.2c-0.2-0.1-0.3-0.3-0.4-0.5c-0.1-0.2-0.1-0.4,0-0.7c0.1-0.2,0.2-0.5,0.4-0.7
			c0.2-0.2,0.4-0.4,0.7-0.6c0.3-0.2,0.6-0.3,0.8-0.3l0.2,0.4c-0.3,0-0.5,0.1-0.8,0.3c-0.2,0.1-0.4,0.3-0.6,0.5
			c-0.2,0.2-0.3,0.5-0.3,0.7c0,0.2,0.1,0.4,0.2,0.5c0.1,0.1,0.3,0.1,0.4,0.1c0.1,0,0.3-0.1,0.4-0.1c0.1-0.1,0.3-0.2,0.5-0.3
			c0.2-0.2,0.5-0.3,0.6-0.4c0.2-0.1,0.4-0.1,0.6-0.1c0.2,0,0.4,0.1,0.6,0.2c0.2,0.1,0.3,0.3,0.4,0.5c0.1,0.2,0.1,0.4,0,0.7
			c-0.1,0.2-0.2,0.5-0.4,0.7C44.4,40.7,44.2,40.8,44,41z"/>
		<path d="M37.7,46c-0.3,0-0.6,0-0.9,0l0.1-0.5c0.2,0.1,0.5,0.1,0.7,0c0.2,0,0.5-0.1,0.7-0.2c0.3-0.2,0.5-0.4,0.6-0.7
			c0.2-0.3,0.2-0.6,0.2-0.9c0-0.3-0.1-0.6-0.2-0.9c-0.2-0.3-0.4-0.5-0.6-0.6c-0.3-0.1-0.6-0.2-0.9-0.2c-0.3,0-0.6,0.1-0.9,0.3
			c-0.2,0.1-0.4,0.3-0.5,0.5c-0.1,0.2-0.2,0.4-0.3,0.6l-0.4-0.1c0.1-0.3,0.2-0.6,0.4-0.8c0.2-0.2,0.4-0.4,0.6-0.6
			c0.4-0.2,0.7-0.3,1.1-0.3c0.4,0,0.8,0.1,1.1,0.3c0.3,0.2,0.6,0.4,0.8,0.8c0.2,0.3,0.3,0.7,0.3,1.1c0,0.4-0.1,0.8-0.3,1.1
			c-0.2,0.3-0.5,0.6-0.8,0.8C38.3,45.8,38,45.9,37.7,46z"/>
		<path d="M30.4,45.4c0.1,0,0.2,0,0.3-0.1l1.1-0.2l-0.2-1.4l0.5-0.1l0.7,4.3l-1.6,0.3c-0.5,0.1-1,0-1.3-0.2c-0.3-0.2-0.5-0.5-0.6-1
			c-0.1-0.4,0-0.7,0.1-0.9c0.1-0.3,0.3-0.5,0.6-0.6l-1.2-1.3l0.6-0.1L30.4,45.4z M29.9,46.2c-0.2,0.2-0.2,0.5-0.2,0.8
			c0.1,0.3,0.2,0.6,0.4,0.7c0.2,0.1,0.6,0.2,0.9,0.1l1.1-0.2l-0.3-2l-1.1,0.2C30.4,45.9,30.1,46,29.9,46.2z"/>
		<path d="M21.7,47.4c-0.3-0.3-0.5-0.6-0.6-1c-0.1-0.4-0.1-0.8,0-1.1c0.1-0.4,0.3-0.7,0.6-1c0.3-0.3,0.6-0.5,1-0.6s0.8-0.1,1.2,0
			c0.4,0.1,0.8,0.3,1,0.6c0.3,0.3,0.5,0.6,0.6,1c0.1,0.4,0.1,0.8,0,1.1c-0.1,0.4-0.3,0.7-0.6,1c-0.3,0.3-0.6,0.5-1,0.6
			c-0.4,0.1-0.8,0.1-1.2,0C22.3,47.9,22,47.7,21.7,47.4z M23.8,47.5c0.3-0.1,0.6-0.2,0.8-0.4s0.4-0.5,0.4-0.8c0.1-0.3,0.1-0.6,0-0.9
			c-0.1-0.3-0.3-0.5-0.5-0.8c-0.2-0.2-0.5-0.4-0.8-0.4c-0.3-0.1-0.6-0.1-0.9,0c-0.3,0.1-0.6,0.2-0.8,0.5c-0.2,0.2-0.4,0.5-0.4,0.8
			c-0.1,0.3-0.1,0.6,0,0.9c0.1,0.3,0.3,0.5,0.5,0.8c0.2,0.2,0.5,0.4,0.8,0.4C23.2,47.6,23.5,47.6,23.8,47.5z"/>
		<path d="M16.7,40.7l0.3-0.4l2,1.4l-2.5,3.6L16,45l2.2-3.2L16.7,40.7z"/>
		<path d="M13.1,36.6l0.4-0.3l1.4,1.9l-3.5,2.6l-0.3-0.4l3.1-2.3L13.1,36.6z"/>
	</g>
	<g>
		<path d="M11.5,13.7c0.2-0.1,0.4-0.3,0.6-0.3l0.2,0.5c-0.2,0.1-0.4,0.2-0.6,0.3c-0.2,0.1-0.3,0.3-0.4,0.4c-0.2,0.2-0.3,0.4-0.3,0.6
			c0,0.2,0,0.3,0.2,0.5c0.1,0.1,0.3,0.1,0.4,0.1c0.1,0,0.3-0.1,0.4-0.1c0.1-0.1,0.3-0.2,0.5-0.3c0.3-0.2,0.5-0.3,0.6-0.4
			c0.2-0.1,0.4-0.1,0.6-0.1c0.2,0,0.4,0.1,0.6,0.2c0.2,0.1,0.3,0.3,0.4,0.5c0.1,0.2,0.1,0.4,0,0.7c-0.1,0.2-0.2,0.5-0.4,0.7
			c-0.2,0.2-0.4,0.4-0.7,0.6c-0.3,0.2-0.6,0.3-0.8,0.3l-0.2-0.4c0.3,0,0.5-0.1,0.8-0.3c0.2-0.1,0.4-0.3,0.6-0.5
			c0.2-0.2,0.3-0.5,0.3-0.7c0-0.2-0.1-0.4-0.2-0.5c-0.1-0.1-0.3-0.1-0.4-0.1c-0.1,0-0.3,0.1-0.4,0.1c-0.1,0.1-0.3,0.2-0.5,0.3
			c-0.2,0.2-0.5,0.3-0.6,0.4c-0.2,0.1-0.4,0.1-0.6,0.1c-0.2,0-0.4-0.1-0.6-0.2c-0.2-0.1-0.3-0.3-0.4-0.5c-0.1-0.2-0.1-0.4,0-0.7
			c0.1-0.2,0.2-0.5,0.4-0.7C11.1,14,11.3,13.9,11.5,13.7z"/>
		<path d="M17.8,8.7c0.3-0.1,0.6,0,0.9,0l-0.1,0.5c-0.2-0.1-0.5-0.1-0.7,0c-0.2,0-0.5,0.1-0.7,0.2c-0.3,0.2-0.5,0.4-0.6,0.7
			c-0.2,0.3-0.2,0.6-0.2,0.9c0,0.3,0.1,0.6,0.3,0.9c0.2,0.3,0.4,0.5,0.7,0.6c0.3,0.1,0.6,0.2,0.9,0.2c0.3,0,0.6-0.1,0.9-0.3
			c0.2-0.1,0.4-0.3,0.5-0.5c0.1-0.2,0.2-0.4,0.3-0.6l0.4,0.1c-0.1,0.3-0.2,0.6-0.4,0.8c-0.2,0.2-0.4,0.5-0.6,0.6
			c-0.3,0.2-0.7,0.3-1.1,0.3c-0.4,0-0.8-0.1-1.1-0.3s-0.6-0.4-0.8-0.8c-0.2-0.3-0.3-0.7-0.3-1.1c0-0.4,0.1-0.8,0.3-1.1
			C16.3,9.5,16.6,9.2,17,9C17.2,8.8,17.5,8.7,17.8,8.7z"/>
		<path d="M25.1,9.2c-0.1,0-0.2,0-0.3,0.1l-1.1,0.2l0.2,1.4l-0.5,0.1l-0.7-4.3l1.6-0.3c0.5-0.1,1,0,1.3,0.2c0.3,0.2,0.5,0.5,0.6,1
			c0.1,0.4,0,0.7-0.1,0.9C26,8.6,25.8,8.8,25.5,9l1.2,1.3l-0.6,0.1L25.1,9.2z M25.6,8.3c0.2-0.2,0.2-0.5,0.2-0.8
			c-0.1-0.3-0.2-0.5-0.4-0.7c-0.2-0.1-0.6-0.2-0.9-0.1L23.3,7l0.3,2l1.1-0.2C25.1,8.7,25.4,8.6,25.6,8.3z"/>
		<path d="M33.8,7.1c0.3,0.3,0.5,0.6,0.6,1c0.1,0.4,0.1,0.8,0,1.1c-0.1,0.4-0.3,0.7-0.6,1c-0.3,0.3-0.6,0.5-1,0.6
			c-0.4,0.1-0.8,0.1-1.2,0c-0.4-0.1-0.8-0.3-1-0.6c-0.3-0.3-0.5-0.6-0.6-1C30,8.9,30,8.6,30,8.2c0.1-0.4,0.3-0.7,0.6-1
			c0.3-0.3,0.6-0.5,1-0.6c0.4-0.1,0.8-0.1,1.2,0C33.2,6.7,33.5,6.8,33.8,7.1z M31.7,7c-0.3,0.1-0.6,0.2-0.8,0.5
			c-0.2,0.2-0.4,0.5-0.4,0.8c-0.1,0.3-0.1,0.6,0,0.9c0.1,0.3,0.3,0.5,0.5,0.8c0.2,0.2,0.5,0.4,0.8,0.4c0.3,0.1,0.6,0.1,0.9,0
			c0.3-0.1,0.6-0.2,0.8-0.5c0.2-0.2,0.4-0.5,0.4-0.8c0.1-0.3,0.1-0.6,0-0.9c-0.1-0.3-0.3-0.5-0.5-0.8C33.2,7.2,33,7.1,32.7,7
			C32.4,7,32,7,31.7,7z"/>
		<path d="M38.9,13.8l-0.3,0.4l-2-1.4l2.5-3.6l0.4,0.3l-2.2,3.2L38.9,13.8z"/>
		<path d="M42.5,17.9l-0.4,0.3l-1.5-1.9l3.5-2.6l0.3,0.4l-3.1,2.4L42.5,17.9z"/>
	</g>
	<circle cx="10.2" cy="27.7" r="1.4"/>
	<circle cx="45.4" cy="27.7" r="1.4"/>
</g>
</svg>
