<svg version="1.1" id="cd-animated-svg" x="0px" y="0px" width="200px" height="200px" viewBox="0 0 200 200" style="enable-background:new 0 0 142.9 142.9;display:none;" xml:space="preserve">
								<style type="text/css">
									.st0{fill:#A3C19A;}
									.st1{fill:none;stroke:#000000;stroke-width:3;stroke-linecap:round;stroke-linejoin:round;stroke-miterlimit:10;}
									.st2{fill:#57A547;}
									.st3{fill:#F7E839;}
								</style>

								<g id="suncloud">
									<circle id="suncloud_colour" class="st3" cx="82.1" cy="39.2" r="10.8"/>
									<g id="suncloud_line">
										<path class="st1" d="M84.1,53.7c-6.1,0-11-4.9-11-11s4.9-11,11-11s11,4.9,11,11c0,0.4,0,3,0,3.4"/>
										<path class="st1" d="M90.6,47.9c2.2-1.6,10.6-5.2,15.1,5.4l6,0.2c1.7,0,3,1.4,3,3.1v0c0,1.4-1.1,2.5-2.5,2.5H80.9
											c-1.1,0-2-0.9-2-2v0c0-1.6,1.1-3.3,2.7-3.4h12.5"/>
										<line class="st1" x1="84.4" y1="16.4" x2="84.4" y2="23.2"/>
										<line class="st1" x1="68.8" y1="21.6" x2="73" y2="27"/>
										<line class="st1" x1="59.4" y1="34.4" x2="65.9" y2="36.5"/>
										<line class="st1" x1="59.3" y1="51.1" x2="65.8" y2="48.9"/>
										<line class="st1" x1="103.2" y1="36.7" x2="109.7" y2="34.9"/>
										<line class="st1" x1="95.8" y1="26.8" x2="99.8" y2="21.2"/>
									</g>
								</g>
								
								<g id="mountain1">
									<path id="mountain1_colour" class="st2" d="M23.7,113.4l19.6-26.3l14.6-7.8c0,0,5.8,4.7,6.5,4.3s10-6.1,10-6.1L87,95
										l-13.6,18.3H23.7z"/>
									<g id="mountain1_line">
										<polygon class="st1" points="25.7,116.4 61,67.2 66.6,75.3 71,71.6 88.9,98.3 75.5,116.4 		"/>
										<polyline class="st1" points="44.1,90.7 59.9,82.3 66.5,86.6 76.5,80.4 		"/>
									</g>
								</g>
								<g id="mountain2">
									<polygon id="mountain2_colour" class="st0" points="77.5,113.4 91,95 103.6,88.3 107.7,92 111,89.7 118.5,91.7 132.7,112.6 	
										"/>
									<g id="mountain2_line">
										<polygon class="st1" points="75.5,116.4 104.6,77 131.2,116.4 		"/>
										<polyline class="st1" points="89,98 101.6,91.3 105.7,95 109,92.7 117.2,95.7 		"/>
									</g>
								</g>
								<g id="groundtop">
									<line id="groundtop_line" class="st1" x1="60.5" y1="123.4" x2="114.6" y2="123.4"/>
									<line id="groundtop_dot" class="st1" x1="52.5" y1="123.4" x2="55.7" y2="123.4"/>
								</g>
								<g id="groundbottom">
									<polyline id="groundbottom_line" class="st1" points="15.5,116.4 27.2,116.4 131.2,116.4 	"/>
									<line id="groundbottom_dot" class="st1" x1="7.5" y1="116.4" x2="10.7" y2="116.4"/>
								</g>
								
								
								</svg>